<?xml version="1.0" standalone="no"?>
<!DOCTYPE svg PUBLIC "-//W3C//DTD SVG 20010904//EN"
 "http://www.w3.org/TR/2001/REC-SVG-20010904/DTD/svg10.dtd">
<svg version="1.0" xmlns="http://www.w3.org/2000/svg"
 width="1200.000000pt" height="1200.000000pt" viewBox="0 0 1200.000000 1200.000000"
 preserveAspectRatio="xMidYMid meet">
<metadata>
Created by potrace 1.14, written by Peter Selinger 2001-2017
</metadata>
<g transform="translate(0.000000,1200.000000) scale(0.100000,-0.100000)"
fill="#000000" stroke="none">
<path d="M4130 6900 l0 -1500 185 0 185 0 0 35 0 35 -150 0 -150 0 0 1430 0
1430 150 0 150 0 0 35 0 35 -185 0 -185 0 0 -1500z"/>
<path d="M7500 8365 l0 -35 150 0 150 0 0 -1430 0 -1430 -150 0 -150 0 0 -35
0 -35 185 0 185 0 0 1500 0 1500 -185 0 -185 0 0 -35z"/>
<path d="M5564 7816 c-41 -18 -90 -80 -111 -141 -29 -81 -24 -240 10 -334 62
-174 185 -276 291 -241 46 15 93 62 119 119 29 65 35 232 12 320 -55 211 -195
332 -321 277z"/>
<path d="M6303 7815 c-77 -33 -155 -148 -188 -276 -25 -94 -17 -257 15 -322
100 -208 312 -143 407 124 34 94 39 253 10 334 -43 125 -145 183 -244 140z"/>
<path d="M5139 7156 c-100 -68 -96 -240 10 -403 132 -204 374 -263 452 -110
18 34 21 54 17 123 -4 71 -10 94 -42 159 -74 150 -215 255 -340 255 -49 0 -69
-5 -97 -24z"/>
<path d="M6651 7158 c-70 -27 -187 -140 -224 -218 -79 -165 -39 -355 82 -390
114 -32 300 92 376 252 78 165 60 309 -46 363 -39 21 -124 18 -188 -7z"/>
<path d="M5940 6891 c-109 -35 -181 -126 -195 -246 -10 -84 -31 -118 -130
-215 -102 -100 -125 -139 -125 -212 0 -186 208 -308 385 -227 70 32 170 32
245 0 186 -80 390 40 390 230 0 70 -26 113 -143 236 -46 49 -89 98 -94 109 -6
10 -14 46 -18 79 -12 100 -67 185 -149 227 -43 22 -128 32 -166 19z"/>
<path d="M4304 4848 c-53 -58 -335 -473 -332 -487 3 -14 26 -17 163 -21 l160
-5 3 -102 3 -102 -103 -3 c-84 -2 -103 -6 -103 -18 0 -13 28 -15 190 -15 162
0 190 2 190 15 0 11 -14 16 -57 18 l-58 3 0 104 0 105 75 0 c73 0 75 1 75 25
0 24 -2 25 -75 25 l-75 0 -2 237 c-3 205 -5 238 -18 241 -9 1 -25 -8 -36 -20z
m-4 -273 l0 -185 -129 0 -130 0 126 185 c69 102 128 185 130 185 1 0 3 -83 3
-185z"/>
<path d="M7978 4620 l-74 -50 -44 23 c-63 31 -177 31 -238 -1 -110 -58 -121
-206 -20 -266 36 -21 38 -25 20 -30 -30 -10 -72 -63 -72 -93 0 -14 13 -37 30
-54 22 -22 26 -31 15 -35 -20 -8 -47 -52 -56 -93 -12 -51 6 -106 42 -131 46
-33 144 -47 230 -32 132 23 189 69 189 154 0 110 -45 139 -232 147 -136 6
-167 18 -154 57 10 32 44 45 137 55 49 5 104 15 122 23 73 30 104 118 72 201
-9 25 -14 48 -11 53 8 13 98 50 139 57 41 7 56 27 37 50 -21 26 -56 17 -132
-35z m-183 -61 c65 -16 99 -57 99 -118 0 -27 -6 -57 -14 -66 -24 -29 -74 -48
-130 -49 -99 -1 -150 37 -153 114 -2 64 30 104 98 121 44 10 52 10 100 -2z
m90 -463 c39 -17 55 -42 55 -89 0 -53 -43 -82 -142 -98 -79 -13 -145 -3 -175
27 -30 30 -31 94 -2 140 l21 34 104 0 c68 0 117 -5 139 -14z"/>
<path d="M5227 4619 c-52 -12 -96 -36 -134 -72 l-33 -31 0 46 c0 26 -5 50 -10
53 -9 6 -92 -7 -142 -21 -20 -6 -25 -43 -5 -45 19 -2 19 -2 60 5 l37 7 0 -211
0 -210 -71 0 c-67 0 -70 -1 -67 -22 l3 -23 220 0 c220 0 220 0 223 22 3 22 1
22 -120 25 l-123 3 -1 135 c0 74 3 148 8 164 17 63 106 120 198 128 l45 3 3
-53 c3 -56 20 -75 47 -52 10 9 15 32 15 76 0 52 -3 65 -19 74 -23 12 -81 12
-134 -1z"/>
<path d="M5882 4612 c-63 -23 -99 -55 -110 -96 -11 -41 -4 -64 21 -72 25 -8
47 18 47 57 0 51 50 75 156 73 85 -2 123 -41 127 -135 l2 -44 -120 -6 c-93 -4
-129 -10 -160 -26 -68 -35 -80 -56 -80 -133 0 -59 3 -72 25 -95 66 -72 199
-71 304 0 l37 25 10 -29 c12 -35 57 -56 100 -47 38 7 89 43 89 61 0 26 -21 27
-65 4 -69 -37 -75 -25 -75 141 0 212 -17 271 -89 314 -48 28 -152 31 -219 8z
m248 -332 c0 -70 0 -70 -37 -94 -58 -38 -157 -61 -204 -47 -67 20 -91 91 -49
144 29 37 125 62 248 66 l42 1 0 -70z"/>
<path d="M6870 4621 c-42 -13 -84 -38 -109 -65 -28 -29 -41 -21 -41 27 0 36
-13 40 -90 24 -56 -11 -65 -16 -68 -36 -4 -23 -2 -24 52 -17 l56 6 -2 -207 -3
-208 -45 -5 c-37 -4 -45 -9 -45 -25 0 -19 8 -20 115 -23 119 -2 147 4 137 32
-5 11 -19 16 -52 16 l-45 0 0 160 0 159 32 36 c84 96 238 110 280 25 15 -29
18 -63 18 -207 l0 -173 -61 0 c-57 0 -60 -1 -57 -22 3 -23 6 -23 138 -23 128
0 135 1 135 20 0 17 -8 20 -47 23 l-48 3 0 180 c0 192 -6 225 -51 265 -45 39
-133 55 -199 35z"/>
</g>
</svg>
